<svg width="49" height="48" viewBox="0 0 49 48" fill="none" xmlns="http://www.w3.org/2000/svg">
<g clip-path="url(#clip0_7322_435)">
<g clip-path="url(#clip1_7322_435)">
<path d="M24.8406 22.8022C29.1448 22.8022 32.4925 19.3069 32.4925 15.0171C32.4925 10.7273 28.9854 7.39087 24.6812 7.39087C20.377 7.39087 17.0293 10.8862 17.0293 15.0171C17.0293 19.3069 20.5364 22.8022 24.8406 22.8022ZM24.6812 10.5685C24.8406 10.5685 24.8406 10.5685 24.6812 10.5685C27.2318 10.5685 29.3042 12.6339 29.3042 15.176C29.3042 17.7181 27.2318 19.6246 24.6812 19.6246C22.1306 19.6246 20.2176 17.5592 20.2176 15.176C20.2176 12.6339 22.29 10.5685 24.6812 10.5685Z" fill="#00A0C1"/>
<path d="M48.4335 21.8487C45.4046 19.1477 41.4193 17.7178 37.2745 17.8767H35.9992C35.6804 19.1477 35.2021 20.2599 34.5645 21.2132C35.5209 21.0543 36.318 21.0543 37.2745 21.0543C40.3034 20.8954 43.3323 21.8487 45.7235 23.5964V35.0357H48.9118V22.3253L48.4335 21.8487Z" fill="#00A0C1"/>
<path d="M33.6088 7.70814C34.4058 5.80158 36.6376 4.8483 38.71 5.6427C40.623 6.4371 41.5795 8.66141 40.7824 10.7269C40.1448 12.1568 38.71 13.1101 37.2753 13.1101C36.9565 13.1101 36.4782 13.1101 36.1594 12.9512C36.3188 13.7456 36.3188 14.54 36.3188 15.1755V16.1288C36.6376 16.1288 36.9565 16.2876 37.2753 16.2876C41.2607 16.2876 44.449 13.1101 44.449 9.29693C44.449 5.32494 41.2607 2.14734 37.4347 2.14734C34.8841 2.14734 32.6523 3.41838 31.377 5.6427C32.174 6.11934 32.9711 6.75486 33.6088 7.70814Z" fill="#00A0C1"/>
<path d="M15.4352 21.3721C14.7975 20.4189 14.3193 19.3067 14.0005 18.0357H12.7252C8.58037 17.8768 4.59501 19.3067 1.56613 21.8488L1.08789 22.3254V35.0358H4.27618V23.5965C6.82681 21.8488 9.69628 20.8955 12.7252 21.0544C13.6816 21.0544 14.6381 21.2133 15.4352 21.3721Z" fill="#00A0C1"/>
<path d="M12.7246 16.1294C13.0435 16.1294 13.3623 16.1294 13.6811 15.9705V15.0172C13.6811 14.2228 13.6811 13.4284 13.8405 12.7929C13.5217 12.9518 13.0435 12.9518 12.7246 12.9518C10.6522 12.9518 8.89869 11.2041 8.89869 9.13868C8.89869 7.07324 10.6522 5.32556 12.7246 5.32556C14.3188 5.32556 15.7535 6.27884 16.3912 7.70876C17.0288 6.91436 17.9853 6.11996 18.7824 5.48444C16.71 2.14796 12.4058 1.0358 9.0581 3.10124C5.7104 5.16668 4.59449 9.45644 6.66688 12.7929C7.9422 14.8584 10.174 16.1294 12.7246 16.1294Z" fill="#00A0C1"/>
<path d="M37.9128 31.3816L37.594 30.905C34.4057 27.4096 29.9421 25.3442 25.1596 25.5031C20.3772 25.3442 15.7542 27.4096 12.5659 30.905L12.2471 31.3816V43.4565C12.2471 44.8864 13.363 46.1574 14.9571 46.1574H35.3622C36.7969 46.1574 38.0722 44.8864 38.0722 43.4565V31.3816H37.9128ZM34.7245 42.9798H15.4354V32.4938C17.986 29.9517 21.4931 28.6807 25.1596 28.6807C28.6668 28.5218 32.1739 29.9517 34.7245 32.4938V42.9798Z" fill="#00A0C1"/>
</g>
</g>
<defs>
<clipPath id="clip0_7322_435">
<rect width="48" height="48" fill="white" transform="translate(0.5)"/>
</clipPath>
<clipPath id="clip1_7322_435">
<rect width="48" height="44.2105" fill="white" transform="translate(1 2)"/>
</clipPath>
</defs>
</svg>
