<svg width="48" height="48" viewBox="0 0 48 48" fill="none" xmlns="http://www.w3.org/2000/svg">
<g clip-path="url(#clip0_7322_395)">
<path d="M29.1426 13.6241H41.1404V17.0695H29.1426V13.6241Z" fill="white"/>
<path d="M29.1426 22.2375H41.1404V25.6829H29.1426V22.2375Z" fill="white"/>
<path d="M29.1426 30.8506H41.1404V34.2959H29.1426V30.8506Z" fill="white"/>
<path d="M44.5674 5.01111H3.43187C2.52299 5.01202 1.65161 5.3753 1.00893 6.02123C0.366264 6.66715 0.00481376 7.54295 0.00390625 8.45643V39.4643C0.00481376 40.3778 0.366264 41.2536 1.00893 41.8995C1.65161 42.5454 2.52299 42.9087 3.43187 42.9096H44.5674C45.4761 42.9082 46.3472 42.5448 46.9898 41.899C47.6324 41.2532 47.994 40.3776 47.9953 39.4643V8.45643C47.9944 7.54295 47.633 6.66715 46.9903 6.02123C46.3477 5.3753 45.4763 5.01202 44.5674 5.01111ZM3.43187 8.45643H22.2856V39.4643H3.43187V8.45643ZM25.7136 39.4643V8.45643H44.5674L44.5708 39.4643H25.7136Z" fill="white"/>
</g>
<defs>
<clipPath id="clip0_7322_395">
<rect width="48" height="37.92" fill="white" transform="translate(0 5)"/>
</clipPath>
</defs>
</svg>
